<?xml version="1.0" encoding="UTF-8" standalone="no"?>
<!-- Created with Inkscape (http://www.inkscape.org/) -->

<svg
   xmlns:dc="http://purl.org/dc/elements/1.1/"
   xmlns:cc="http://creativecommons.org/ns#"
   xmlns:rdf="http://www.w3.org/1999/02/22-rdf-syntax-ns#"
   xmlns:svg="http://www.w3.org/2000/svg"
   xmlns="http://www.w3.org/2000/svg"
   xmlns:sodipodi="http://sodipodi.sourceforge.net/DTD/sodipodi-0.dtd"
   xmlns:inkscape="http://www.inkscape.org/namespaces/inkscape"
   width="155"
   height="40"
   viewBox="0 0 41.010416 10.583334"
   version="1.1"
   id="svg8"
   inkscape:version="0.92.4 5da689c313, 2019-01-14"
   sodipodi:docname="mongo.svg">
  <defs
     id="defs2" />
  <sodipodi:namedview
     id="base"
     pagecolor="#ffffff"
     bordercolor="#666666"
     borderopacity="1.0"
     inkscape:pageopacity="0.0"
     inkscape:pageshadow="2"
     inkscape:zoom="4.1167332"
     inkscape:cx="81.434582"
     inkscape:cy="10.256245"
     inkscape:document-units="mm"
     inkscape:current-layer="layer1"
     showgrid="false"
     units="px"
     inkscape:window-width="1366"
     inkscape:window-height="746"
     inkscape:window-x="0"
     inkscape:window-y="0"
     inkscape:window-maximized="0" />
  <metadata
     id="metadata5">
    <rdf:RDF>
      <cc:Work
         rdf:about="">
        <dc:format>image/svg+xml</dc:format>
        <dc:type
           rdf:resource="http://purl.org/dc/dcmitype/StillImage" />
        <dc:title></dc:title>
      </cc:Work>
    </rdf:RDF>
  </metadata>
  <g
     inkscape:label="Layer 1"
     inkscape:groupmode="layer"
     id="layer1"
     transform="translate(0,-286.41665)">
    <g
       style="fill:none"
       id="g1063"
       transform="matrix(0.26458333,0,0,0.26458333,0.58520561,286.44218)">
      <g
         transform="translate(7.77767,29.406999)"
         id="g1043">
        <mask
           fill="white"
           id="mask1039">
          <polygon
             points="0.3,10.4 0.3,0.3 2.7,0.3 2.7,10.4 "
             id="polygon1037" />
        </mask>
        <path
           style="fill:#c2bfbf"
           inkscape:connector-curvature="0"
           d="M 1.2,0.3 C 1,2.9 0.7,4.8 0.4,5.5 L 0.3,5.4 C 1.1,7.1 1,10 1,10 l 1.1,0.4 c 0,0 -0.3,-2.8 0,-4.2 C 2.2,5.8 2.4,5.4 2.7,5.1 H 2.6 C 1.5,4.6 1.2,2.4 1.2,0.3 Z"
           mask="url(#mask-2)"
           id="path1041" />
      </g>
      <path
         style="fill:#68b245"
         inkscape:connector-curvature="0"
         d="M 17.5,15.8 C 15.4,6.6 10.4,3.6 9.9,2.4 9.4,1.7 9.1,0.9 8.7,0.1 V 0 c 0,0.8 0,1.1 -0.8,2 C 7.1,2.8 0.5,8 0,18.5 -0.5,28.2 7.1,34 8.1,34.8 l 0.1,0.1 c 0.3,-0.7 0.6,-2.6 0.8,-5.2 0,2.1 0.3,4.3 1.4,4.8 h 0.1 c 0.4,-0.3 0.9,-0.7 1.3,-1.1 v 0 c 2.5,-2.3 7.3,-8.1 5.7,-17.6"
         id="path1045" />
      <path
         style="fill:#599642"
         inkscape:connector-curvature="0"
         d="M 17.5,15.8 C 15.4,6.6 10.4,3.6 9.9,2.4 9.4,1.7 9.1,0.9 8.7,0.1 9.2,2 9.1,17.4 9.2,19.3 c 0.1,3.4 0,6.9 -0.2,10.4 0,2.1 0.3,4.3 1.4,4.8 h 0.1 c 0.4,-0.3 0.9,-0.7 1.3,-1.1 v 0 c 2.5,-2.3 7.3,-8.1 5.7,-17.6"
         id="path1047" />
      <path
         style="fill:#47474a"
         inkscape:connector-curvature="0"
         d="m 119.7,29.9 c 0.6,0.5 1.9,0.7 3.1,0.7 1.1,0 2.9,-0.2 4.3,-1.5 1.4,-1.3 2.4,-3.4 2.4,-6.5 0,-3.2 -1.1,-5.6 -3.5,-7.1 -1.4,-0.8 -3.1,-1.2 -5.1,-1.2 -0.5,0 -1.1,0.1 -1.5,0.2 -0.2,0.1 -0.3,0.3 -0.3,0.5 -0.1,0.5 -0.1,4.7 -0.1,7.1 0,2.5 0,6.1 0.1,6.5 0,0.5 0.3,1 0.6,1.3 M 113.5,13 h 3.5 c 1.7,0 2.9,0 6.1,0 3.3,0 5,0.7 6.7,2.1 1.6,1.4 3,4.1 3,7 0,4.1 -1.9,6.5 -3.8,7.8 -1.8,1.3 -4.3,2.2 -7.8,2.2 L 113.6,32 h -0.1 c -0.1,-0.3 0.3,-1.2 0.5,-1.2 0.4,0 0.8,-0.1 1.2,-0.3 0.6,-0.2 0.7,-0.5 0.8,-1.5 0.1,-1.9 0.1,-4.1 0.1,-6.7 0,-1.8 0,-5.4 -0.1,-6.5 -0.1,-1.1 -0.5,-1.2 -1.3,-1.4 L 113,14.1 c -0.1,-0.1 0.4,-1 0.5,-1.1"
         id="path1049" />
      <path
         style="fill:#47474a"
         inkscape:connector-curvature="0"
         d="m 140.4,14.5 c -0.1,0.1 -0.3,0.4 -0.3,0.5 0,1.1 0,4 0,5.9 0,0.1 0,0.2 0.1,0.2 h 2.2 c 1.2,0 1.9,-0.1 2.2,-0.3 1,-0.5 1.5,-1.5 1.5,-2.7 0,-2.7 -1.9,-3.7 -4.6,-3.7 -0.4,0 -0.7,0.1 -1.1,0.1 m 7,12.2 c 0,-2.7 -2,-4.2 -5.6,-4.2 -0.5,0 -1,0 -1.6,0.1 0,0 -0.1,0 -0.1,0.1 0,1.9 -0.1,5 0,6.2 0.1,0.5 0.5,1.3 0.9,1.5 0.5,0.2 1.6,0.3 2.4,0.3 2.1,0 4,-1.2 4,-4 M 134.8,13 c 0.3,0 1.1,0.1 3.2,0.1 l 5.5,-0.1 c 2.4,0 5.6,0.9 5.6,4.4 0,1.7 -1.2,3.2 -2.8,3.8 -0.1,0.1 -0.1,0.1 0,0.1 2.3,0.6 4.3,2 4.3,4.7 0,2.7 -1.6,4.3 -4,5.3 -1.4,0.6 -3.2,0.8 -5,0.8 -1.8,0 -5.1,-0.1 -7.2,-0.1 -0.2,0 0.2,-1 0.4,-1.2 0.5,0 0.9,-0.1 1.4,-0.2 0.7,-0.2 0.8,-0.4 0.9,-1.5 0.1,-1.1 0.1,-4.4 0.1,-6.8 0,-3.3 0,-5.5 0,-6.6 0,-1 -0.3,-1.1 -0.9,-1.3 l -1.9,-0.2 c -0.1,-0.2 0.4,-1.1 0.5,-1.2"
         id="path1051" />
      <path
         style="fill:#47474a"
         inkscape:connector-curvature="0"
         d="m 24.4,32.1 c -0.1,-0.2 -0.1,-0.4 -0.1,-0.7 0,-0.1 0,-0.2 0.1,-0.4 l 1.2,-0.2 c 0.5,-0.2 0.7,-0.5 0.8,-1.1 0,-1.7 0.1,-4.7 0,-6.9 v -0.1 c 0.1,-0.3 0,-0.6 -0.3,-0.8 -0.5,-0.3 -1,-0.5 -1.6,-0.7 -0.3,-0.1 -0.4,-0.2 -0.4,-0.3 0,-0.2 0.2,-0.4 0.5,-0.5 1.4,-0.2 2.8,-0.5 4.2,-1 0.1,0.1 0.1,0.3 0.1,0.4 v 0.3 c -0.1,0.3 -0.1,0.7 -0.1,1 0.1,0.1 0.1,0.2 0.3,0.2 l 0.1,-0.1 c 1.7,-1.3 3.3,-1.8 4.1,-1.8 0.8,0 2.4,0.6 3.2,1.9 0,0.1 0.1,0.1 0.2,0.1 l 0.1,-0.1 c 1.6,-1.2 3.2,-1.9 4.3,-1.9 2.5,0 4,1.9 4,5 v 3.2 2.4 c 0.1,0.3 0.3,0.5 0.5,0.6 0.5,0.2 1,0.3 1.6,0.4 v 0 c 0,0.4 0,0.7 -0.1,1 h -0.7 -2.1 c -1.7,0 -2.6,0 -3.4,0 -0.1,-0.3 -0.1,-0.7 0,-1 l 1,-0.2 c 0.6,-0.2 0.8,-0.4 0.8,-1.1 0,-0.7 0.1,-5 -0.1,-6 -0.2,-1.4 -1.4,-2.5 -2.8,-2.4 -1,0.1 -2,0.4 -2.8,1.1 0,0 -0.1,0.1 -0.1,0.2 0.1,0.8 0.2,1.5 0.1,2.3 v 1.7 3.3 c 0,0.4 0.3,0.8 0.7,0.8 l 0.4,0.2 0.8,0.1 c 0.1,0.3 0.1,0.6 0,0.8 0,0.1 0,0.2 -0.1,0.3 L 35.6,32 h -3 c 0,-0.2 -0.1,-0.3 -0.1,-0.5 0,-0.2 0.1,-0.4 0.2,-0.5 l 0.3,-0.1 0.9,-0.2 c 0.5,-0.1 0.6,-0.4 0.7,-0.9 0.1,-1.4 0.1,-5.3 -0.1,-6.2 -0.3,-1.6 -1.2,-2.4 -2.6,-2.4 -1,0 -2,0.4 -2.8,1 -0.2,0.2 -0.3,0.4 -0.3,0.7 v 1.6 c 0,1.9 0,4.4 0.1,5.4 0,0.5 0.3,0.8 0.7,0.9 l 0.6,0.1 0.5,0.1 c 0.1,0.3 0.1,0.7 0,1 h -1 L 27.5,31.9 25.4,32 h -1"
         id="path1053" />
      <path
         style="fill:#47474a"
         inkscape:connector-curvature="0"
         d="m 55.3,20.7 c -0.5,0 -1.1,0.1 -1.5,0.4 -1.1,0.7 -1.6,2 -1.6,3.9 0,3.5 1.7,6 4.3,6 0.7,0.1 1.4,-0.2 1.9,-0.6 0.8,-0.7 1.2,-2 1.2,-3.8 0,-3.5 -1.7,-5.9 -4.3,-5.9 m 0.5,11.7 c -4.6,0 -6.3,-3.4 -6.3,-6.6 0,-2.1 1,-4 2.7,-5.2 1.3,-0.7 2.7,-1.2 4.2,-1.2 3.5,0 6,2.6 6,6.2 0,2.5 -1,4.4 -2.9,5.6 -1.1,0.7 -2.4,1.1 -3.7,1.2"
         id="path1055" />
      <path
         style="fill:#47474a"
         inkscape:connector-curvature="0"
         d="m 102.4,20.7 c -0.5,0 -1,0.2 -1.5,0.4 -1,0.7 -1.6,2 -1.6,3.9 0,3.6 1.8,6.1 4.4,6.1 0.6,0 1.3,-0.3 1.8,-0.7 0.8,-0.7 1.3,-2 1.3,-3.8 0,-3.5 -1.8,-5.9 -4.4,-5.9 m 0.5,11.7 c -4.6,0 -6.2,-3.4 -6.2,-6.6 -0.1,-2.1 0.9,-4 2.7,-5.1 1.2,-0.8 2.6,-1.2 4.1,-1.3 3.5,0 6,2.6 6,6.2 0,2.5 -1,4.4 -2.8,5.7 -1.2,0.6 -2.5,1 -3.8,1.1"
         id="path1057" />
      <path
         style="fill:#47474a"
         inkscape:connector-curvature="0"
         d="m 86.8,20.6 c -1.4,0 -2.3,1.1 -2.3,2.8 0,1.7 0.8,3.8 3,3.8 0.6,0 1.1,-0.2 1.4,-0.5 0.6,-0.5 0.9,-1.5 0.9,-2.6 0,-2.2 -1.1,-3.6 -3,-3.6 m -0.1,12.1 c -0.5,0 -0.8,0.1 -1.2,0.3 -1.1,0.7 -1.7,1.4 -1.7,2.3 0,0.8 0.4,1.5 1,1.9 0.8,0.7 1.9,1 3.3,1 2.7,0 4,-1.4 4,-2.9 0,-1.5 -0.6,-1.7 -1.6,-2.1 -1.2,-0.4 -2.5,-0.6 -3.8,-0.5 m 0.1,7.1 c -1.6,0 -2.8,-0.4 -3.9,-1.2 -0.8,-0.6 -1.3,-1.6 -1.4,-2.7 0,-0.5 0.2,-1 0.6,-1.4 0.7,-0.7 1.6,-1.4 2.5,-2 0,0 0.1,-0.1 0,-0.2 0,0 0,0 0,0 -1.3,-0.5 -1.7,-1.3 -1.8,-1.8 v 0 c -0.1,-0.2 0,-0.4 0.1,-0.5 l 0.8,-0.5 c 0.5,-0.2 0.9,-0.5 1.2,-0.8 0.1,-0.1 0.2,-0.2 0.1,-0.3 0,0 0,0 -0.1,0 -1.9,-0.7 -2.8,-2.1 -2.8,-4.2 -0.1,-1.4 0.6,-2.6 1.7,-3.4 1.2,-0.8 2.5,-1.3 3.9,-1.4 h 0.1 c 1,0.1 2,0.3 2.9,0.7 0.6,0.2 1.2,0.3 1.8,0.3 0.7,0.1 1.4,-0.2 1.9,-0.7 0.1,0.2 0.1,0.4 0.1,0.5 0,0.5 -0.1,0.9 -0.3,1.3 -0.3,0.3 -0.8,0.5 -1.2,0.5 H 92.8 L 92.1,21.8 H 92 c 0,0.1 0,0.1 0,0.2 0.1,0.4 0.2,0.8 0.2,1.2 0,2.2 -0.9,3.2 -1.8,3.9 -1,0.7 -2.1,1.1 -3.2,1.2 h -0.8 c -0.2,0.1 -0.7,0.4 -0.7,0.8 0,0.5 0.2,0.9 1.4,1 h 0.7 c 1.6,0.1 3.5,0.3 4.4,0.6 1.2,0.4 2.1,1.6 2,2.9 0,2 -1.4,3.9 -3.8,5.1 -1.1,0.5 -2.3,0.8 -3.6,0.8"
         id="path1059" />
      <path
         style="fill:#47474a"
         inkscape:connector-curvature="0"
         d="M 79.8,31 C 79.2,30.9 78.6,30.8 78,30.6 77.9,30.4 77.8,30.3 77.8,30.1 77.7,29.2 77.7,26.4 77.7,24.6 77.7,22.8 77.5,21.9 76.9,21 76.2,19.9 75,19.3 73.7,19.3 c -1.2,0 -2.8,0.8 -4.1,2 0,0 -0.2,0.2 -0.2,-0.1 0,-0.3 0,-0.9 0.1,-1.3 0,-0.2 -0.1,-0.4 -0.2,-0.5 -1.4,0.5 -2.8,0.9 -4.2,1.1 -0.7,0.1 -0.8,0.7 -0.1,0.9 0.5,0.2 1.1,0.4 1.6,0.7 0.2,0.2 0.3,0.5 0.2,0.8 0.1,2.1 0.1,5.2 0,6.9 -0.1,0.7 -0.3,0.9 -0.7,1.1 v 0 l -1.2,0.2 c -0.1,0.4 -0.1,0.8 0,1.2 0.3,0 1.9,-0.1 3.2,-0.1 1.3,0 2.7,0.1 3.2,0.1 0.2,-0.4 0.2,-0.8 0.1,-1.2 -0.4,0 -0.8,-0.1 -1.2,-0.2 -0.5,-0.1 -0.7,-0.4 -0.7,-0.9 0,-1.5 0,-4.5 0,-6.6 -0.1,-0.4 0,-0.7 0.3,-1 0.7,-0.6 1.6,-0.9 2.5,-0.9 0.7,0 1.4,0.2 1.9,0.6 0.5,0.5 0.8,1.1 0.9,1.7 0.1,1.2 0,3.5 0,5.5 0,1.1 0,1.4 -0.4,1.5 -0.5,0.1 -0.9,0.2 -1.3,0.2 -0.2,0.2 -0.1,1.1 0,1.3 0.8,0 1.7,-0.1 3.1,-0.1 1.3,0 2.7,0.1 3.2,0.1 0.1,-0.4 0.2,-0.9 0.1,-1.3"
         id="path1061" />
    </g>
  </g>
</svg>
