<?xml version="1.0" encoding="UTF-8" standalone="no"?>
<svg
   xmlns:dc="http://purl.org/dc/elements/1.1/"
   xmlns:cc="http://creativecommons.org/ns#"
   xmlns:rdf="http://www.w3.org/1999/02/22-rdf-syntax-ns#"
   xmlns:svg="http://www.w3.org/2000/svg"
   xmlns="http://www.w3.org/2000/svg"
   xmlns:sodipodi="http://sodipodi.sourceforge.net/DTD/sodipodi-0.dtd"
   xmlns:inkscape="http://www.inkscape.org/namespaces/inkscape"
   version="1.1"
   id="Level_1"
   x="0px"
   y="0px"
   width="600"
   height="100"
   viewBox="0 0 600 100"
   enable-background="new 0 0 1024 768"
   xml:space="preserve"
   sodipodi:docname="logo.svg"
   inkscape:version="0.92.4 5da689c313, 2019-01-14"><metadata
   id="metadata971"><rdf:RDF><cc:Work
       rdf:about=""><dc:format>image/svg+xml</dc:format><dc:type
         rdf:resource="http://purl.org/dc/dcmitype/StillImage" /><dc:title /></cc:Work></rdf:RDF></metadata><defs
   id="defs969"><clipPath
   id="a"><path
     id="path5749"
     d="m 239.03,226.605 -42.13,24.317 c -1.578,0.91 -2.546,2.59 -2.546,4.406 v 48.668 c 0,1.817 0.968,3.496 2.546,4.406 l 42.133,24.336 c 1.575,0.907 3.517,0.907 5.09,0 l 42.126,-24.336 c 1.57,-0.91 2.54,-2.59 2.54,-4.406 v -48.668 c 0,-1.816 -0.97,-3.496 -2.55,-4.406 l -42.12,-24.317 c -0.79,-0.453 -1.67,-0.68 -2.55,-0.68 -0.88,0 -1.76,0.227 -2.55,0.68"
     inkscape:connector-curvature="0" /></clipPath><linearGradient
   gradientUnits="userSpaceOnUse"
   gradientTransform="matrix(-38.064915,77.652126,-77.652126,-38.064915,258.72325,244.62943)"
   x2="1.251"
   x1="-0.34799999"
   id="b"><stop
     id="stop5752"
     stop-color="#3E863D"
     offset=".3" /><stop
     id="stop5754"
     stop-color="#55934F"
     offset=".5" /><stop
     id="stop5756"
     stop-color="#5AAD45"
     offset=".8" /></linearGradient><clipPath
   id="c"><path
     id="path5759"
     d="m 195.398,307.086 c 0.403,0.523 0.907,0.976 1.5,1.316 l 36.14,20.875 6.02,3.46 c 0.9,0.52 1.926,0.74 2.934,0.665 0.336,-0.027 0.672,-0.09 1,-0.183 l 44.434,-81.36 c -0.34,-0.37 -0.738,-0.68 -1.184,-0.94 l -27.586,-15.93 -14.582,-8.39 c -0.414,-0.24 -0.863,-0.41 -1.32,-0.53 z m 0,0"
     inkscape:connector-curvature="0" /></clipPath><linearGradient
   gradientUnits="userSpaceOnUse"
   gradientTransform="matrix(106.8057,-78.916731,78.916731,106.8057,235.18824,285.39477)"
   x2="0.58200002"
   x1="-0.456"
   id="d"><stop
     id="stop5762"
     stop-color="#3E863D"
     offset=".57" /><stop
     id="stop5764"
     stop-color="#619857"
     offset=".72" /><stop
     id="stop5766"
     stop-color="#76AC64"
     offset="1" /></linearGradient><clipPath
   id="e"><path
     id="path5769"
     d="m 241.066,225.953 c -0.707,0.07 -1.398,0.29 -2.035,0.652 l -42.01,24.247 45.3,82.51 c 0.63,-0.09 1.25,-0.3 1.81,-0.624 l 42.13,-24.336 c 1.3,-0.754 2.19,-2.03 2.46,-3.476 l -46.18,-78.89 c -0.34,-0.067 -0.68,-0.102 -1.03,-0.102 -0.14,0 -0.28,0.007 -0.42,0.02"
     inkscape:connector-curvature="0" /></clipPath><linearGradient
   gradientUnits="userSpaceOnUse"
   gradientTransform="matrix(97.417,0,0,97.417,192.862,279.652)"
   x2="0.98400003"
   x1="0.043000001"
   id="f"><stop
     id="stop5772"
     stop-color="#6BBF47"
     offset=".16" /><stop
     id="stop5774"
     stop-color="#79B461"
     offset=".38" /><stop
     id="stop5776"
     stop-color="#75AC64"
     offset=".47" /><stop
     id="stop5778"
     stop-color="#659E5A"
     offset=".7" /><stop
     id="stop5780"
     stop-color="#3E863D"
     offset=".9" /></linearGradient><clipPath
   id="a-5"><path
     id="path1573"
     d="m 239.03,226.605 -42.13,24.317 c -1.578,0.91 -2.546,2.59 -2.546,4.406 v 48.668 c 0,1.817 0.968,3.496 2.546,4.406 l 42.133,24.336 c 1.575,0.907 3.517,0.907 5.09,0 l 42.126,-24.336 c 1.57,-0.91 2.54,-2.59 2.54,-4.406 v -48.668 c 0,-1.816 -0.97,-3.496 -2.55,-4.406 l -42.12,-24.317 c -0.79,-0.453 -1.67,-0.68 -2.55,-0.68 -0.88,0 -1.76,0.227 -2.55,0.68"
     inkscape:connector-curvature="0" /></clipPath><linearGradient
   gradientUnits="userSpaceOnUse"
   gradientTransform="matrix(-38.064915,77.652126,-77.652126,-38.064915,258.72325,244.62943)"
   x2="1.251"
   x1="-0.34799999"
   id="b-3"><stop
     id="stop1576"
     stop-color="#3E863D"
     offset=".3" /><stop
     id="stop1578"
     stop-color="#55934F"
     offset=".5" /><stop
     id="stop1580"
     stop-color="#5AAD45"
     offset=".8" /></linearGradient><clipPath
   id="c-5"><path
     id="path1583"
     d="m 195.398,307.086 c 0.403,0.523 0.907,0.976 1.5,1.316 l 36.14,20.875 6.02,3.46 c 0.9,0.52 1.926,0.74 2.934,0.665 0.336,-0.027 0.672,-0.09 1,-0.183 l 44.434,-81.36 c -0.34,-0.37 -0.738,-0.68 -1.184,-0.94 l -27.586,-15.93 -14.582,-8.39 c -0.414,-0.24 -0.863,-0.41 -1.32,-0.53 z m 0,0"
     inkscape:connector-curvature="0" /></clipPath><linearGradient
   gradientUnits="userSpaceOnUse"
   gradientTransform="matrix(106.8057,-78.916731,78.916731,106.8057,235.18824,285.39477)"
   x2="0.58200002"
   x1="-0.456"
   id="d-6"><stop
     id="stop1586"
     stop-color="#3E863D"
     offset=".57" /><stop
     id="stop1588"
     stop-color="#619857"
     offset=".72" /><stop
     id="stop1590"
     stop-color="#76AC64"
     offset="1" /></linearGradient><clipPath
   id="e-2"><path
     id="path1593"
     d="m 241.066,225.953 c -0.707,0.07 -1.398,0.29 -2.035,0.652 l -42.01,24.247 45.3,82.51 c 0.63,-0.09 1.25,-0.3 1.81,-0.624 l 42.13,-24.336 c 1.3,-0.754 2.19,-2.03 2.46,-3.476 l -46.18,-78.89 c -0.34,-0.067 -0.68,-0.102 -1.03,-0.102 -0.14,0 -0.28,0.007 -0.42,0.02"
     inkscape:connector-curvature="0" /></clipPath><linearGradient
   gradientUnits="userSpaceOnUse"
   gradientTransform="matrix(97.417,0,0,97.417,192.862,279.652)"
   x2="0.98400003"
   x1="0.043000001"
   id="f-9"><stop
     id="stop1596"
     stop-color="#6BBF47"
     offset=".16" /><stop
     id="stop1598"
     stop-color="#79B461"
     offset=".38" /><stop
     id="stop1600"
     stop-color="#75AC64"
     offset=".47" /><stop
     id="stop1602"
     stop-color="#659E5A"
     offset=".7" /><stop
     id="stop1604"
     stop-color="#3E863D"
     offset=".9" /></linearGradient><clipPath
   id="clipPath2832"><path
     id="path2834-1"
     d="M 0,792 H 612 V 0 H 0 Z"
     inkscape:connector-curvature="0" /></clipPath><clipPath
   id="clipPath2844"><path
     id="path2846"
     d="M 0,792 H 612 V 0 H 0 Z"
     inkscape:connector-curvature="0" /></clipPath><clipPath
   id="clipPath2852"><path
     id="path2854"
     d="M 96.0078,715.93 H 184.298 V 653.754 H 96.0078 Z"
     inkscape:connector-curvature="0" /></clipPath><clipPath
   id="clipPath2868"><path
     id="path2870"
     d="M 0,792 H 612 V 0 H 0 Z"
     inkscape:connector-curvature="0" /></clipPath><clipPath
   id="clipPath2880"><path
     id="path2882"
     d="M 0,792 H 612 V 0 H 0 Z"
     inkscape:connector-curvature="0" /></clipPath><clipPath
   id="clipPath2908"><path
     id="path2910"
     d="M 0,792 H 612 V 0 H 0 Z"
     inkscape:connector-curvature="0" /></clipPath><clipPath
   id="clipPath2936"><path
     id="path2938"
     d="M 0,792 H 612 V 0 H 0 Z"
     inkscape:connector-curvature="0" /></clipPath><clipPath
   id="clipPath2944"><path
     id="path2946"
     d="m 121.202,708.378 h 45.899 v -45.859 h -45.899 z"
     inkscape:connector-curvature="0" /></clipPath><clipPath
   id="clipPath2960"><path
     id="path2962"
     d="M 0,792 H 612 V 0 H 0 Z"
     inkscape:connector-curvature="0" /></clipPath><clipPath
   id="clipPath2968"><path
     id="path2970"
     d="M 40.4033,726.188 H 252.805 V 664.37 H 40.4033 Z"
     inkscape:connector-curvature="0" /></clipPath><clipPath
   id="clipPath2988"><path
     id="path2990"
     d="M 0,792 H 612 V 0 H 0 Z"
     inkscape:connector-curvature="0" /></clipPath><clipPath
   id="clipPath2996"><path
     id="path2998"
     d="M 39.5195,688.644 H 238.9 V 614.826 H 39.5195 Z"
     inkscape:connector-curvature="0" /></clipPath><clipPath
   id="clipPath3016"><path
     id="path3018"
     d="M 0,792 H 612 V 0 H 0 Z"
     inkscape:connector-curvature="0" /></clipPath>





</defs><sodipodi:namedview
   pagecolor="#ffffff"
   bordercolor="#666666"
   borderopacity="1"
   objecttolerance="10"
   gridtolerance="10"
   guidetolerance="10"
   inkscape:pageopacity="0"
   inkscape:pageshadow="2"
   inkscape:window-width="1366"
   inkscape:window-height="746"
   id="namedview967"
   showgrid="false"
   showguides="true"
   inkscape:guide-bbox="true"
   inkscape:zoom="0.85470339"
   inkscape:cx="258.51482"
   inkscape:cy="60.311961"
   inkscape:window-x="0"
   inkscape:window-y="0"
   inkscape:window-maximized="0"
   inkscape:current-layer="layer2"><sodipodi:guide
     position="75.028336,1579.8824"
     orientation="1,0"
     id="guide2944"
     inkscape:locked="false" /></sodipodi:namedview>
  
  
  
  
  
  
  <g
   inkscape:groupmode="layer"
   id="layer2"
   inkscape:label="name"
   style="display:inline"
   transform="translate(0,-668)"><rect
     style="display:inline;opacity:1;fill:#f93943;fill-opacity:1;stroke:none;stroke-width:1.29717493;stroke-linecap:butt;stroke-linejoin:miter;stroke-miterlimit:4;stroke-dasharray:none;stroke-dashoffset:0;paint-order:markers stroke fill"
     id="rect1595"
     width="32.559757"
     height="29.445347"
     x="-99.905754"
     y="728.0871"
     transform="matrix(-0.99653162,-0.08321496,-0.08321496,0.99653162,0,0)"
     ry="2.745687" /><rect
     style="display:inline;opacity:1;fill:#f93943;fill-opacity:1;stroke:none;stroke-width:1.29717493;stroke-linecap:butt;stroke-linejoin:miter;stroke-miterlimit:4;stroke-dasharray:none;stroke-dashoffset:0;paint-order:markers stroke fill"
     id="rect1597"
     width="25.906246"
     height="25.764679"
     x="-123.85649"
     y="696.39557"
     transform="matrix(-0.99272464,-0.12040674,-0.12040674,0.99272464,0,0)"
     ry="2.745687" /><rect
     style="display:inline;opacity:1;fill:#f93943;fill-opacity:1;stroke:none;stroke-width:1.29717481;stroke-linecap:butt;stroke-linejoin:miter;stroke-miterlimit:4;stroke-dasharray:none;stroke-dashoffset:0;paint-order:markers stroke fill"
     id="rect1599"
     width="19.67742"
     height="19.252726"
     x="-111.17422"
     y="679.72815"
     transform="matrix(-0.9958733,-0.09075441,-0.09075441,0.9958733,0,0)"
     ry="2.7456865" /><rect
     style="display:inline;opacity:1;fill:#f93943;fill-opacity:1;stroke:none;stroke-width:1.16711032;stroke-linecap:butt;stroke-linejoin:miter;stroke-miterlimit:4;stroke-dasharray:none;stroke-dashoffset:0;paint-order:markers stroke fill"
     id="rect1601"
     width="15.411753"
     height="15.411753"
     x="307.85114"
     y="600.26196"
     transform="matrix(-0.84598832,0.53320142,0.53320142,0.84598832,0,0)"
     ry="2.7456865" /><g
     aria-label="STACK PICKER"
     style="font-style:normal;font-weight:normal;font-size:79.31782532px;line-height:1.25;font-family:sans-serif;letter-spacing:0px;word-spacing:0px;fill:#222222;fill-opacity:1;stroke:none;stroke-width:1.98294556"
     id="text1566"><path
       d="m 75.003957,715.8234 c 0.555224,10.54927 7.773147,17.44992 18.322417,17.44992 10.152686,0 17.687876,-7.37656 17.687876,-17.3706 0,-5.15566 -2.14158,-9.7561 -5.7902,-12.53222 -2.45885,-1.74499 -4.91771,-2.85544 -10.945862,-4.67975 -5.314294,-1.58636 -7.059286,-2.30022 -8.645643,-3.64862 -1.665674,-1.50704 -2.776124,-4.12453 -2.776124,-6.82134 0,-5.94883 4.283163,-10.232 10.152682,-10.232 5.948837,0 9.994047,4.04521 10.469957,10.46996 h 6.10747 c -0.23795,-9.51814 -6.82133,-15.86357 -16.418791,-15.86357 -9.438822,0 -16.260154,6.58338 -16.260154,15.78425 0,4.04521 1.507038,7.93178 4.124526,10.39064 2.300217,2.22089 4.04521,3.01407 10.94586,5.23497 4.600434,1.3484 7.138605,2.45885 9.121549,3.80726 2.53817,1.82431 3.96589,4.83838 3.96589,8.40769 0,6.74201 -4.83838,11.65972 -11.5804,11.65972 -3.727938,0 -7.29724,-1.66568 -9.438821,-4.36248 -1.665675,-2.06227 -2.379535,-4.04521 -2.776124,-7.69383 z"
       style="font-style:normal;font-variant:normal;font-weight:normal;font-stretch:normal;font-family:'URW Gothic';-inkscape-font-specification:'URW Gothic';fill:#222222;fill-opacity:1;stroke-width:1.98294556"
       id="path905" /><path
       d="m 126.56798,732.24219 h 5.86952 v -53.30158 h 13.40471 v -5.3143 h -32.67894 v 5.3143 h 13.40471 z"
       style="font-style:normal;font-variant:normal;font-weight:normal;font-stretch:normal;font-family:'URW Gothic';-inkscape-font-specification:'URW Gothic';fill:#222222;fill-opacity:1;stroke-width:1.98294556"
       id="path907" /><path
       d="m 143.22472,732.24219 h 6.18679 l 8.56633,-19.75014 h 27.28533 l 8.48701,19.75014 h 6.42474 l -25.22307,-58.61588 h -6.58338 z m 16.97402,-25.06444 11.50108,-26.88874 11.26313,26.88874 z"
       style="font-style:normal;font-variant:normal;font-weight:normal;font-stretch:normal;font-family:'URW Gothic';-inkscape-font-specification:'URW Gothic';fill:#222222;fill-opacity:1;stroke-width:1.98294556"
       id="path909" /><path
       d="m 252.69324,716.85453 c -2.45885,3.09339 -3.88658,4.67975 -5.86952,6.18679 -3.96589,3.09339 -9.20087,4.83839 -14.51516,4.83839 -13.64267,0 -24.74716,-11.18382 -24.74716,-24.98512 0,-14.11857 10.62858,-24.9058 24.66784,-24.9058 5.07634,0 9.83541,1.34841 13.72198,3.9659 2.61749,1.66567 4.20385,3.41066 6.42475,6.90065 h 6.58338 c -4.52112,-10.07337 -14.83244,-16.26016 -26.96806,-16.26016 -17.44993,0 -30.37873,13.00813 -30.37873,30.53737 0,17.21196 13.24607,30.14077 30.77531,30.14077 11.89768,0 20.93991,-5.55225 26.80943,-16.41879 z"
       style="font-style:normal;font-variant:normal;font-weight:normal;font-stretch:normal;font-family:'URW Gothic';-inkscape-font-specification:'URW Gothic';fill:#222222;fill-opacity:1;stroke-width:1.98294556"
       id="path911" /><path
       d="m 268.44155,732.24219 h 5.86952 v -16.0222 l 7.61451,-9.35951 19.51219,25.38171 h 7.37656 l -23.16081,-30.06146 23.16081,-28.55442 h -7.37656 l -27.1267,33.71008 v -33.71008 h -5.86952 z"
       style="font-style:normal;font-variant:normal;font-weight:normal;font-stretch:normal;font-family:'URW Gothic';-inkscape-font-specification:'URW Gothic';fill:#222222;fill-opacity:1;stroke-width:1.98294556"
       id="path913" /><path
       d="m 337.37989,732.24219 h 5.86952 v -23.71603 h 11.26313 c 7.93179,0 12.21495,-1.03113 15.78425,-3.64862 3.80726,-2.77613 5.86952,-7.61451 5.86952,-13.48403 0,-6.74202 -2.53817,-12.05631 -6.97997,-14.6738 -3.64862,-2.2209 -8.09042,-3.0934 -15.62561,-3.0934 h -16.18084 z m 5.86952,-29.03033 v -24.27125 h 8.32837 c 6.74202,0 10.94586,0.55522 13.3254,1.74499 3.48998,1.74499 5.31429,5.47293 5.31429,10.70791 0,4.52111 -1.82431,8.16973 -4.83838,9.83541 -2.45886,1.42772 -5.86952,1.98294 -11.26314,1.98294 z"
       style="font-style:normal;font-variant:normal;font-weight:normal;font-stretch:normal;font-family:'URW Gothic';-inkscape-font-specification:'URW Gothic';fill:#222222;fill-opacity:1;stroke-width:1.98294556"
       id="path915" /><path
       d="m 384.16502,732.24219 h 5.86952 v -58.61588 h -5.86952 z"
       style="font-style:normal;font-variant:normal;font-weight:normal;font-stretch:normal;font-family:'URW Gothic';-inkscape-font-specification:'URW Gothic';fill:#222222;fill-opacity:1;stroke-width:1.98294556"
       id="path917" /><path
       d="m 450.67796,716.85453 c -2.45886,3.09339 -3.88658,4.67975 -5.86952,6.18679 -3.96589,3.09339 -9.20087,4.83839 -14.51517,4.83839 -13.64266,0 -24.74716,-11.18382 -24.74716,-24.98512 0,-14.11857 10.62859,-24.9058 24.66785,-24.9058 5.07634,0 9.83541,1.34841 13.72198,3.9659 2.61749,1.66567 4.20385,3.41066 6.42474,6.90065 h 6.58338 c -4.52111,-10.07337 -14.83243,-16.26016 -26.96806,-16.26016 -17.44992,0 -30.37872,13.00813 -30.37872,30.53737 0,17.21196 13.24607,30.14077 30.77531,30.14077 11.89768,0 20.93991,-5.55225 26.80943,-16.41879 z"
       style="font-style:normal;font-variant:normal;font-weight:normal;font-stretch:normal;font-family:'URW Gothic';-inkscape-font-specification:'URW Gothic';fill:#222222;fill-opacity:1;stroke-width:1.98294556"
       id="path919" /><path
       d="m 466.42628,732.24219 h 5.86952 v -16.0222 l 7.61451,-9.35951 19.51218,25.38171 h 7.37656 l -23.1608,-30.06146 23.1608,-28.55442 h -7.37656 l -27.12669,33.71008 v -33.71008 h -5.86952 z"
       style="font-style:normal;font-variant:normal;font-weight:normal;font-stretch:normal;font-family:'URW Gothic';-inkscape-font-specification:'URW Gothic';fill:#222222;fill-opacity:1;stroke-width:1.98294556"
       id="path921" /><path
       d="m 513.52125,732.24219 h 32.0444 v -5.3143 h -26.17488 v -21.65376 h 25.30239 v -5.3143 h -25.30239 v -21.01922 h 26.17488 v -5.3143 h -32.0444 z"
       style="font-style:normal;font-variant:normal;font-weight:normal;font-stretch:normal;font-family:'URW Gothic';-inkscape-font-specification:'URW Gothic';fill:#222222;fill-opacity:1;stroke-width:1.98294556"
       id="path923" /><path
       d="m 578.41561,710.35047 c 11.26313,-1.18977 17.29129,-7.37656 17.29129,-17.92583 0,-7.29724 -3.0934,-12.84949 -8.80428,-15.94288 -3.64862,-1.98295 -8.64564,-2.85545 -16.41879,-2.85545 h -14.51516 v 58.61588 h 5.86952 v -53.30158 h 8.24905 c 6.18679,0 10.31132,0.63454 13.48403,2.14158 3.96589,1.90363 6.18679,5.86952 6.18679,11.18381 0,6.6627 -3.01408,10.86655 -8.88359,12.37358 -2.77613,0.71386 -6.58338,1.03114 -13.08745,1.03114 l 19.75014,26.57147 h 7.29724 z"
       style="font-style:normal;font-variant:normal;font-weight:normal;font-stretch:normal;font-family:'URW Gothic';-inkscape-font-specification:'URW Gothic';fill:#222222;fill-opacity:1;stroke-width:1.98294556"
       id="path925" /></g><g
     aria-label="The professional way to (not) pick a web stack"
     style="font-style:normal;font-weight:normal;font-size:79.31782532px;line-height:1.25;font-family:sans-serif;letter-spacing:0px;word-spacing:0px;fill:#222222;fill-opacity:1;stroke:none;stroke-width:1.98294556"
     id="text1621"><path
       d="m 100.89673,759.30878 h 1.57867 v -14.336 h 3.60533 v -1.42934 h -8.789334 v 1.42934 h 3.605334 z"
       style="font-style:normal;font-variant:normal;font-weight:normal;font-stretch:normal;font-size:21.33333397px;font-family:'URW Gothic';-inkscape-font-specification:'URW Gothic';text-align:center;text-anchor:middle;fill:#222222;fill-opacity:1;stroke-width:1.98294556"
       id="path928" /><path
       d="m 107.73606,759.30878 h 1.57867 v -6.4 c 0,-1.25867 0.17067,-2.00534 0.64,-2.64534 0.64,-0.91733 1.728,-1.45066 2.92267,-1.45066 1.13066,0 2.19733,0.46933 2.816,1.25866 0.55466,0.704 0.78933,1.6 0.78933,2.96534 v 6.272 h 1.57867 v -6.272 c 0,-1.74934 -0.32,-2.96534 -1.00267,-3.88267 -0.87467,-1.13067 -2.34667,-1.792 -4.05333,-1.792 -1.57867,0 -2.90134,0.64 -3.69067,1.792 v -5.61067 h -1.57867 z"
       style="font-style:normal;font-variant:normal;font-weight:normal;font-stretch:normal;font-size:21.33333397px;font-family:'URW Gothic';-inkscape-font-specification:'URW Gothic';text-align:center;text-anchor:middle;fill:#222222;fill-opacity:1;stroke-width:1.98294556"
       id="path930" /><path
       d="m 132.42673,753.99678 c 0,-1.6 -0.21333,-2.58134 -0.78933,-3.60534 -1.04534,-1.87733 -3.072,-3.02933 -5.312,-3.02933 -3.392,0 -6.03734,2.66667 -6.03734,6.05867 0,3.456 2.70934,6.16533 6.16534,6.16533 2.53866,0 4.82133,-1.64267 5.67466,-4.11733 h -1.64266 c -0.66134,1.6 -2.304,2.66666 -4.07467,2.66666 -2.41067,0 -4.416,-1.83466 -4.544,-4.13866 z m -10.51733,-1.42934 c 0.42666,-2.24 2.19733,-3.75466 4.416,-3.75466 2.26133,0 3.968,1.408 4.52266,3.75466 z"
       style="font-style:normal;font-variant:normal;font-weight:normal;font-stretch:normal;font-size:21.33333397px;font-family:'URW Gothic';-inkscape-font-specification:'URW Gothic';text-align:center;text-anchor:middle;fill:#222222;fill-opacity:1;stroke-width:1.98294556"
       id="path932" /><path
       d="m 140.52773,747.63944 v 15.76534 h 1.57867 v -6.10134 c 1.024,1.49334 2.60266,2.28267 4.544,2.28267 3.49866,0 6.18666,-2.66667 6.18666,-6.08 0,-3.49867 -2.66666,-6.144 -6.144,-6.144 -2.00533,0 -3.584,0.78933 -4.58666,2.28267 v -2.00534 z m 6.10133,1.17334 c 2.64534,0 4.608,2.00533 4.608,4.69333 0,2.624 -1.984,4.62933 -4.58666,4.62933 -2.66667,0 -4.65067,-2.00533 -4.65067,-4.71466 0,-2.58134 2.02667,-4.608 4.62933,-4.608 z"
       style="font-style:normal;font-variant:normal;font-weight:normal;font-stretch:normal;font-size:21.33333397px;font-family:'URW Gothic';-inkscape-font-specification:'URW Gothic';text-align:center;text-anchor:middle;fill:#222222;fill-opacity:1;stroke-width:1.98294556"
       id="path934" /><path
       d="m 155.0694,759.30878 h 1.57867 v -6.80534 c -0.0213,-2.112 1.152,-3.41333 3.30666,-3.584 v -1.55733 c -1.68533,0.0853 -2.688,0.66133 -3.30666,1.94133 v -1.664 h -1.57867 z"
       style="font-style:normal;font-variant:normal;font-weight:normal;font-stretch:normal;font-size:21.33333397px;font-family:'URW Gothic';-inkscape-font-specification:'URW Gothic';text-align:center;text-anchor:middle;fill:#222222;fill-opacity:1;stroke-width:1.98294556"
       id="path936" /><path
       d="m 166.49407,747.36211 c -3.47734,0 -6.12267,2.624 -6.12267,6.03733 0,3.60534 2.624,6.18667 6.25067,6.18667 3.41333,0 5.93066,-2.58133 5.93066,-6.08 0,-3.56267 -2.53866,-6.144 -6.05866,-6.144 z m 0,1.45067 c 2.58133,0 4.45866,1.984 4.45866,4.71466 0,2.688 -1.83466,4.608 -4.37333,4.608 -2.688,0 -4.608,-1.94133 -4.608,-4.69333 0,-2.64533 1.94133,-4.62933 4.52267,-4.62933 z"
       style="font-style:normal;font-variant:normal;font-weight:normal;font-stretch:normal;font-size:21.33333397px;font-family:'URW Gothic';-inkscape-font-specification:'URW Gothic';text-align:center;text-anchor:middle;fill:#222222;fill-opacity:1;stroke-width:1.98294556"
       id="path938" /><path
       d="m 175.5884,759.30878 h 1.57867 v -10.24 h 2.90133 v -1.42934 h -2.90133 c -0.0213,-1.96266 0.74666,-2.64533 2.90133,-2.66666 v -1.42934 c -3.008,0 -4.52267,1.38667 -4.48,4.096 h -1.81333 v 1.42934 h 1.81333 z"
       style="font-style:normal;font-variant:normal;font-weight:normal;font-stretch:normal;font-size:21.33333397px;font-family:'URW Gothic';-inkscape-font-specification:'URW Gothic';text-align:center;text-anchor:middle;fill:#222222;fill-opacity:1;stroke-width:1.98294556"
       id="path940" /><path
       d="m 192.67673,753.99678 c 0,-1.6 -0.21333,-2.58134 -0.78933,-3.60534 -1.04534,-1.87733 -3.072,-3.02933 -5.312,-3.02933 -3.392,0 -6.03734,2.66667 -6.03734,6.05867 0,3.456 2.70934,6.16533 6.16534,6.16533 2.53866,0 4.82133,-1.64267 5.67466,-4.11733 h -1.64266 c -0.66134,1.6 -2.304,2.66666 -4.07467,2.66666 -2.41067,0 -4.416,-1.83466 -4.544,-4.13866 z m -10.51733,-1.42934 c 0.42666,-2.24 2.19733,-3.75466 4.416,-3.75466 2.26133,0 3.968,1.408 4.52266,3.75466 z"
       style="font-style:normal;font-variant:normal;font-weight:normal;font-stretch:normal;font-size:21.33333397px;font-family:'URW Gothic';-inkscape-font-specification:'URW Gothic';text-align:center;text-anchor:middle;fill:#222222;fill-opacity:1;stroke-width:1.98294556"
       id="path942" /><path
       d="m 194.02606,755.87411 c 0.0213,2.26133 1.49334,3.712 3.75467,3.712 2.112,0 3.56267,-1.49333 3.56267,-3.62667 0,-1.42933 -0.66134,-2.41066 -2.02667,-2.98666 -1.792,-0.74667 -1.87733,-0.768 -2.19733,-0.93867 -0.72534,-0.36267 -1.06667,-0.85333 -1.06667,-1.536 0,-0.93867 0.74667,-1.68533 1.68533,-1.68533 1.024,0 1.62134,0.59733 1.70667,1.70666 h 1.6 c -0.064,-1.87733 -1.408,-3.15733 -3.28533,-3.15733 -1.89867,0 -3.30667,1.38667 -3.30667,3.28533 0,0.85334 0.29867,1.55734 0.87467,2.09067 0.49066,0.448 0.512,0.46933 2.15466,1.13067 1.81334,0.74666 2.26134,1.17333 2.26134,2.24 0,1.17333 -0.81067,2.02666 -1.96267,2.02666 -1.32267,0 -2.112,-0.81066 -2.19733,-2.26133 z"
       style="font-style:normal;font-variant:normal;font-weight:normal;font-stretch:normal;font-size:21.33333397px;font-family:'URW Gothic';-inkscape-font-specification:'URW Gothic';text-align:center;text-anchor:middle;fill:#222222;fill-opacity:1;stroke-width:1.98294556"
       id="path944" /><path
       d="m 202.7344,755.87411 c 0.0213,2.26133 1.49333,3.712 3.75467,3.712 2.112,0 3.56266,-1.49333 3.56266,-3.62667 0,-1.42933 -0.66133,-2.41066 -2.02666,-2.98666 -1.792,-0.74667 -1.87734,-0.768 -2.19734,-0.93867 -0.72533,-0.36267 -1.06666,-0.85333 -1.06666,-1.536 0,-0.93867 0.74666,-1.68533 1.68533,-1.68533 1.024,0 1.62133,0.59733 1.70667,1.70666 h 1.6 c -0.064,-1.87733 -1.408,-3.15733 -3.28534,-3.15733 -1.89866,0 -3.30667,1.38667 -3.30667,3.28533 0,0.85334 0.29867,1.55734 0.87467,2.09067 0.49067,0.448 0.512,0.46933 2.15467,1.13067 1.81333,0.74666 2.26133,1.17333 2.26133,2.24 0,1.17333 -0.81066,2.02666 -1.96266,2.02666 -1.32267,0 -2.112,-0.81066 -2.19734,-2.26133 z"
       style="font-style:normal;font-variant:normal;font-weight:normal;font-stretch:normal;font-size:21.33333397px;font-family:'URW Gothic';-inkscape-font-specification:'URW Gothic';text-align:center;text-anchor:middle;fill:#222222;fill-opacity:1;stroke-width:1.98294556"
       id="path946" /><path
       d="m 211.98606,759.30878 h 1.57867 v -11.66934 h -1.57867 z m 0,-13.07734 h 1.57867 v -2.688 h -1.57867 z"
       style="font-style:normal;font-variant:normal;font-weight:normal;font-stretch:normal;font-size:21.33333397px;font-family:'URW Gothic';-inkscape-font-specification:'URW Gothic';text-align:center;text-anchor:middle;fill:#222222;fill-opacity:1;stroke-width:1.98294556"
       id="path948" /><path
       d="m 221.91073,747.36211 c -3.47733,0 -6.12267,2.624 -6.12267,6.03733 0,3.60534 2.624,6.18667 6.25067,6.18667 3.41333,0 5.93067,-2.58133 5.93067,-6.08 0,-3.56267 -2.53867,-6.144 -6.05867,-6.144 z m 0,1.45067 c 2.58133,0 4.45867,1.984 4.45867,4.71466 0,2.688 -1.83467,4.608 -4.37334,4.608 -2.688,0 -4.608,-1.94133 -4.608,-4.69333 0,-2.64533 1.94134,-4.62933 4.52267,-4.62933 z"
       style="font-style:normal;font-variant:normal;font-weight:normal;font-stretch:normal;font-size:21.33333397px;font-family:'URW Gothic';-inkscape-font-specification:'URW Gothic';text-align:center;text-anchor:middle;fill:#222222;fill-opacity:1;stroke-width:1.98294556"
       id="path950" /><path
       d="m 230.19441,759.30878 h 1.57866 v -6.42134 c 0,-1.30133 0.17067,-1.984 0.61867,-2.64533 0.61867,-0.896 1.70667,-1.42933 2.944,-1.42933 1.152,0 2.19733,0.46933 2.83733,1.25866 0.55467,0.72534 0.768,1.57867 0.768,3.11467 v 6.12267 h 1.57867 v -6.12267 c 0,-1.96267 -0.27733,-3.008 -1.024,-4.01067 -0.91733,-1.17333 -2.32533,-1.81333 -3.968,-1.81333 -1.536,0 -2.77333,0.576 -3.75467,1.792 v -1.51467 h -1.57866 z"
       style="font-style:normal;font-variant:normal;font-weight:normal;font-stretch:normal;font-size:21.33333397px;font-family:'URW Gothic';-inkscape-font-specification:'URW Gothic';text-align:center;text-anchor:middle;fill:#222222;fill-opacity:1;stroke-width:1.98294556"
       id="path952" /><path
       d="m 255.07707,747.63944 h -1.57866 v 2.06934 c -1.17334,-1.62134 -2.58134,-2.34667 -4.608,-2.34667 -3.49867,0 -6.144,2.64533 -6.144,6.144 0,3.49867 2.66666,6.08 6.272,6.08 1.984,0 3.22133,-0.64 4.48,-2.32533 v 2.048 h 1.57866 z m -6.144,1.17334 c 2.58134,0 4.56534,2.00533 4.56534,4.608 0,2.66666 -1.96267,4.71466 -4.48,4.71466 -2.64534,0 -4.672,-2.06933 -4.672,-4.736 0,-2.53866 2.048,-4.58666 4.58666,-4.58666 z"
       style="font-style:normal;font-variant:normal;font-weight:normal;font-stretch:normal;font-size:21.33333397px;font-family:'URW Gothic';-inkscape-font-specification:'URW Gothic';text-align:center;text-anchor:middle;fill:#222222;fill-opacity:1;stroke-width:1.98294556"
       id="path954" /><path
       d="m 257.77773,759.30878 h 1.57867 v -15.76534 h -1.57867 z"
       style="font-style:normal;font-variant:normal;font-weight:normal;font-stretch:normal;font-size:21.33333397px;font-family:'URW Gothic';-inkscape-font-specification:'URW Gothic';text-align:center;text-anchor:middle;fill:#222222;fill-opacity:1;stroke-width:1.98294556"
       id="path956" /><path
       d="m 271.20841,759.30878 h 1.70666 l 2.51734,-7.744 2.53866,7.744 h 1.68534 l 4.52266,-11.66934 h -1.536 l -3.79733,9.77067 -2.752,-8.34133 h -1.30133 l -2.752,8.34133 -3.712,-9.77067 h -1.57867 z"
       style="font-style:normal;font-variant:normal;font-weight:normal;font-stretch:normal;font-size:21.33333397px;font-family:'URW Gothic';-inkscape-font-specification:'URW Gothic';text-align:center;text-anchor:middle;fill:#222222;fill-opacity:1;stroke-width:1.98294556"
       id="path958" /><path
       d="m 297.1604,747.63944 h -1.57867 v 2.06934 c -1.17333,-1.62134 -2.58133,-2.34667 -4.608,-2.34667 -3.49866,0 -6.144,2.64533 -6.144,6.144 0,3.49867 2.66667,6.08 6.272,6.08 1.984,0 3.22134,-0.64 4.48,-2.32533 v 2.048 h 1.57867 z m -6.144,1.17334 c 2.58133,0 4.56533,2.00533 4.56533,4.608 0,2.66666 -1.96266,4.71466 -4.48,4.71466 -2.64533,0 -4.672,-2.06933 -4.672,-4.736 0,-2.53866 2.048,-4.58666 4.58667,-4.58666 z"
       style="font-style:normal;font-variant:normal;font-weight:normal;font-stretch:normal;font-size:21.33333397px;font-family:'URW Gothic';-inkscape-font-specification:'URW Gothic';text-align:center;text-anchor:middle;fill:#222222;fill-opacity:1;stroke-width:1.98294556"
       id="path960" /><path
       d="m 301.37473,763.40478 h 1.68534 l 6.74133,-15.76534 h -1.68533 l -3.94667,9.30134 -3.69067,-9.30134 h -1.728 l 4.52267,11.28534 z"
       style="font-style:normal;font-variant:normal;font-weight:normal;font-stretch:normal;font-size:21.33333397px;font-family:'URW Gothic';-inkscape-font-specification:'URW Gothic';text-align:center;text-anchor:middle;fill:#222222;fill-opacity:1;stroke-width:1.98294556"
       id="path962" /><path
       d="m 318.6654,759.30878 h 1.57866 v -10.24 h 2.624 v -1.42934 h -2.624 v -4.096 h -1.57866 v 4.096 h -2.51734 v 1.42934 h 2.51734 z"
       style="font-style:normal;font-variant:normal;font-weight:normal;font-stretch:normal;font-size:21.33333397px;font-family:'URW Gothic';-inkscape-font-specification:'URW Gothic';text-align:center;text-anchor:middle;fill:#222222;fill-opacity:1;stroke-width:1.98294556"
       id="path964" /><path
       d="m 329.66073,747.36211 c -3.47733,0 -6.12267,2.624 -6.12267,6.03733 0,3.60534 2.624,6.18667 6.25067,6.18667 3.41333,0 5.93067,-2.58133 5.93067,-6.08 0,-3.56267 -2.53867,-6.144 -6.05867,-6.144 z m 0,1.45067 c 2.58133,0 4.45867,1.984 4.45867,4.71466 0,2.688 -1.83467,4.608 -4.37334,4.608 -2.688,0 -4.608,-1.94133 -4.608,-4.69333 0,-2.64533 1.94134,-4.62933 4.52267,-4.62933 z"
       style="font-style:normal;font-variant:normal;font-weight:normal;font-stretch:normal;font-size:21.33333397px;font-family:'URW Gothic';-inkscape-font-specification:'URW Gothic';text-align:center;text-anchor:middle;fill:#222222;fill-opacity:1;stroke-width:1.98294556"
       id="path966" /><path
       d="m 349.66373,743.54344 c -1.23733,0.42667 -1.984,0.87467 -2.85867,1.77067 -1.92,1.92 -3.072,4.69333 -3.072,7.40267 0,2.21866 0.68267,4.30933 2.048,6.18666 1.152,1.62134 2.26134,2.47467 3.88267,3.072 v -1.38666 c -1.06667,-0.66134 -1.70667,-1.216 -2.32533,-2.02667 -1.30134,-1.70667 -2.02667,-3.81867 -2.02667,-5.84533 0,-1.74934 0.53333,-3.52 1.6,-5.16267 0.72533,-1.17333 1.51467,-1.94133 2.752,-2.66667 z"
       style="font-style:normal;font-variant:normal;font-weight:normal;font-stretch:normal;font-size:21.33333397px;font-family:'URW Gothic';-inkscape-font-specification:'URW Gothic';text-align:center;text-anchor:middle;fill:#222222;fill-opacity:1;stroke-width:1.98294556"
       id="path968" /><path
       d="m 351.73606,759.30878 h 1.57867 v -6.42134 c 0,-1.30133 0.17067,-1.984 0.61867,-2.64533 0.61866,-0.896 1.70666,-1.42933 2.944,-1.42933 1.152,0 2.19733,0.46933 2.83733,1.25866 0.55467,0.72534 0.768,1.57867 0.768,3.11467 v 6.12267 h 1.57867 v -6.12267 c 0,-1.96267 -0.27734,-3.008 -1.024,-4.01067 -0.91734,-1.17333 -2.32534,-1.81333 -3.968,-1.81333 -1.536,0 -2.77334,0.576 -3.75467,1.792 v -1.51467 h -1.57867 z"
       style="font-style:normal;font-variant:normal;font-weight:normal;font-stretch:normal;font-size:21.33333397px;font-family:'URW Gothic';-inkscape-font-specification:'URW Gothic';text-align:center;text-anchor:middle;fill:#222222;fill-opacity:1;stroke-width:1.98294556"
       id="path970" /><path
       d="m 370.41073,747.36211 c -3.47733,0 -6.12267,2.624 -6.12267,6.03733 0,3.60534 2.624,6.18667 6.25067,6.18667 3.41333,0 5.93067,-2.58133 5.93067,-6.08 0,-3.56267 -2.53867,-6.144 -6.05867,-6.144 z m 0,1.45067 c 2.58133,0 4.45867,1.984 4.45867,4.71466 0,2.688 -1.83467,4.608 -4.37334,4.608 -2.688,0 -4.608,-1.94133 -4.608,-4.69333 0,-2.64533 1.94134,-4.62933 4.52267,-4.62933 z"
       style="font-style:normal;font-variant:normal;font-weight:normal;font-stretch:normal;font-size:21.33333397px;font-family:'URW Gothic';-inkscape-font-specification:'URW Gothic';text-align:center;text-anchor:middle;fill:#222222;fill-opacity:1;stroke-width:1.98294556"
       id="path972" /><path
       d="m 379.70708,759.30878 h 1.57867 v -10.24 h 2.624 v -1.42934 h -2.624 v -4.096 h -1.57867 v 4.096 h -2.51733 v 1.42934 h 2.51733 z"
       style="font-style:normal;font-variant:normal;font-weight:normal;font-stretch:normal;font-size:21.33333397px;font-family:'URW Gothic';-inkscape-font-specification:'URW Gothic';text-align:center;text-anchor:middle;fill:#222222;fill-opacity:1;stroke-width:1.98294556"
       id="path974" /><path
       d="m 384.90908,761.97544 c 1.23734,-0.42666 1.984,-0.896 2.85867,-1.77066 1.92,-1.94134 3.072,-4.71467 3.072,-7.40267 0,-2.21867 -0.68267,-4.30933 -2.048,-6.208 -1.152,-1.6 -2.26133,-2.47467 -3.88267,-3.05067 v 1.38667 c 1.06667,0.64 1.70667,1.216 2.32534,2.02667 1.30133,1.70666 2.02666,3.81866 2.02666,5.824 0,1.77066 -0.53333,3.52 -1.6,5.184 -0.72533,1.152 -1.51466,1.92 -2.752,2.64533 z"
       style="font-style:normal;font-variant:normal;font-weight:normal;font-stretch:normal;font-size:21.33333397px;font-family:'URW Gothic';-inkscape-font-specification:'URW Gothic';text-align:center;text-anchor:middle;fill:#222222;fill-opacity:1;stroke-width:1.98294556"
       id="path976" /><path
       d="m 399.31941,747.63944 v 15.76534 h 1.57866 v -6.10134 c 1.024,1.49334 2.60267,2.28267 4.544,2.28267 3.49867,0 6.18667,-2.66667 6.18667,-6.08 0,-3.49867 -2.66667,-6.144 -6.144,-6.144 -2.00533,0 -3.584,0.78933 -4.58667,2.28267 v -2.00534 z m 6.10133,1.17334 c 2.64533,0 4.608,2.00533 4.608,4.69333 0,2.624 -1.984,4.62933 -4.58667,4.62933 -2.66666,0 -4.65066,-2.00533 -4.65066,-4.71466 0,-2.58134 2.02666,-4.608 4.62933,-4.608 z"
       style="font-style:normal;font-variant:normal;font-weight:normal;font-stretch:normal;font-size:21.33333397px;font-family:'URW Gothic';-inkscape-font-specification:'URW Gothic';text-align:center;text-anchor:middle;fill:#222222;fill-opacity:1;stroke-width:1.98294556"
       id="path978" /><path
       d="m 413.86106,759.30878 h 1.57867 v -11.66934 h -1.57867 z m 0,-13.07734 h 1.57867 v -2.688 h -1.57867 z"
       style="font-style:normal;font-variant:normal;font-weight:normal;font-stretch:normal;font-size:21.33333397px;font-family:'URW Gothic';-inkscape-font-specification:'URW Gothic';text-align:center;text-anchor:middle;fill:#222222;fill-opacity:1;stroke-width:1.98294556"
       id="path980" /><path
       d="m 427.94573,755.87411 c -1.216,1.62133 -2.32533,2.26133 -4.01067,2.26133 -2.60266,0 -4.672,-2.048 -4.672,-4.65066 0,-2.624 2.02667,-4.672 4.62934,-4.672 1.728,0 3.15733,0.832 4.05333,2.368 h 1.77067 c -0.93867,-2.34667 -3.17867,-3.81867 -5.80267,-3.81867 -3.49867,0 -6.25067,2.688 -6.25067,6.08 0,3.47733 2.77334,6.144 6.35734,6.144 1.45066,0 2.79466,-0.448 3.88266,-1.32267 0.74667,-0.59733 1.19467,-1.17333 1.83467,-2.38933 z"
       style="font-style:normal;font-variant:normal;font-weight:normal;font-stretch:normal;font-size:21.33333397px;font-family:'URW Gothic';-inkscape-font-specification:'URW Gothic';text-align:center;text-anchor:middle;fill:#222222;fill-opacity:1;stroke-width:1.98294556"
       id="path982" /><path
       d="m 431.81941,759.30878 h 1.57866 v -2.41067 l 1.83467,-2.26133 3.88267,4.672 h 1.96266 l -4.84266,-5.80267 4.544,-5.86667 h -1.94134 l -5.44,7.08267 v -11.17867 h -1.57866 z"
       style="font-style:normal;font-variant:normal;font-weight:normal;font-stretch:normal;font-size:21.33333397px;font-family:'URW Gothic';-inkscape-font-specification:'URW Gothic';text-align:center;text-anchor:middle;fill:#222222;fill-opacity:1;stroke-width:1.98294556"
       id="path984" /><path
       d="m 460.32707,747.63944 h -1.57866 v 2.06934 c -1.17334,-1.62134 -2.58134,-2.34667 -4.608,-2.34667 -3.49867,0 -6.144,2.64533 -6.144,6.144 0,3.49867 2.66666,6.08 6.272,6.08 1.984,0 3.22133,-0.64 4.48,-2.32533 v 2.048 h 1.57866 z m -6.144,1.17334 c 2.58134,0 4.56534,2.00533 4.56534,4.608 0,2.66666 -1.96267,4.71466 -4.48,4.71466 -2.64534,0 -4.672,-2.06933 -4.672,-4.736 0,-2.53866 2.048,-4.58666 4.58666,-4.58666 z"
       style="font-style:normal;font-variant:normal;font-weight:normal;font-stretch:normal;font-size:21.33333397px;font-family:'URW Gothic';-inkscape-font-specification:'URW Gothic';text-align:center;text-anchor:middle;fill:#222222;fill-opacity:1;stroke-width:1.98294556"
       id="path986" /><path
       d="m 472.20841,759.30878 h 1.70666 l 2.51734,-7.744 2.53866,7.744 h 1.68534 l 4.52266,-11.66934 h -1.536 l -3.79733,9.77067 -2.752,-8.34133 h -1.30133 l -2.752,8.34133 -3.712,-9.77067 h -1.57867 z"
       style="font-style:normal;font-variant:normal;font-weight:normal;font-stretch:normal;font-size:21.33333397px;font-family:'URW Gothic';-inkscape-font-specification:'URW Gothic';text-align:center;text-anchor:middle;fill:#222222;fill-opacity:1;stroke-width:1.98294556"
       id="path988" /><path
       d="m 497.96842,753.99678 c 0,-1.6 -0.21334,-2.58134 -0.78934,-3.60534 -1.04533,-1.87733 -3.072,-3.02933 -5.312,-3.02933 -3.392,0 -6.03733,2.66667 -6.03733,6.05867 0,3.456 2.70933,6.16533 6.16533,6.16533 2.53867,0 4.82134,-1.64267 5.67467,-4.11733 h -1.64267 c -0.66133,1.6 -2.304,2.66666 -4.07466,2.66666 -2.41067,0 -4.416,-1.83466 -4.544,-4.13866 z m -10.51734,-1.42934 c 0.42667,-2.24 2.19734,-3.75466 4.416,-3.75466 2.26134,0 3.968,1.408 4.52267,3.75466 z"
       style="font-style:normal;font-variant:normal;font-weight:normal;font-stretch:normal;font-size:21.33333397px;font-family:'URW Gothic';-inkscape-font-specification:'URW Gothic';text-align:center;text-anchor:middle;fill:#222222;fill-opacity:1;stroke-width:1.98294556"
       id="path990" /><path
       d="m 500.27775,759.30878 h 1.57867 v -2.00534 c 0.98133,1.45067 2.64533,2.28267 4.56533,2.28267 3.52,0 6.16533,-2.624 6.16533,-6.12267 0,-3.43466 -2.688,-6.10133 -6.144,-6.10133 -1.96266,0 -3.584,0.81067 -4.58666,2.28267 v -6.10134 h -1.57867 z m 6.12267,-10.496 c 2.624,0 4.58666,1.984 4.58666,4.608 0,2.688 -1.96266,4.71466 -4.608,4.71466 -1.30133,0 -2.368,-0.448 -3.28533,-1.38666 -0.91733,-0.93867 -1.344,-2.00534 -1.344,-3.328 0,-2.60267 2.02667,-4.608 4.65067,-4.608 z"
       style="font-style:normal;font-variant:normal;font-weight:normal;font-stretch:normal;font-size:21.33333397px;font-family:'URW Gothic';-inkscape-font-specification:'URW Gothic';text-align:center;text-anchor:middle;fill:#222222;fill-opacity:1;stroke-width:1.98294556"
       id="path992" /><path
       d="m 519.77606,755.87411 c 0.0213,2.26133 1.49334,3.712 3.75467,3.712 2.112,0 3.56267,-1.49333 3.56267,-3.62667 0,-1.42933 -0.66134,-2.41066 -2.02667,-2.98666 -1.792,-0.74667 -1.87733,-0.768 -2.19733,-0.93867 -0.72534,-0.36267 -1.06667,-0.85333 -1.06667,-1.536 0,-0.93867 0.74667,-1.68533 1.68533,-1.68533 1.024,0 1.62134,0.59733 1.70667,1.70666 h 1.6 c -0.064,-1.87733 -1.408,-3.15733 -3.28533,-3.15733 -1.89867,0 -3.30667,1.38667 -3.30667,3.28533 0,0.85334 0.29867,1.55734 0.87467,2.09067 0.49066,0.448 0.512,0.46933 2.15466,1.13067 1.81334,0.74666 2.26134,1.17333 2.26134,2.24 0,1.17333 -0.81067,2.02666 -1.96267,2.02666 -1.32267,0 -2.112,-0.81066 -2.19733,-2.26133 z"
       style="font-style:normal;font-variant:normal;font-weight:normal;font-stretch:normal;font-size:21.33333397px;font-family:'URW Gothic';-inkscape-font-specification:'URW Gothic';text-align:center;text-anchor:middle;fill:#222222;fill-opacity:1;stroke-width:1.98294556"
       id="path994" /><path
       d="m 530.58208,759.30878 h 1.57867 v -10.24 h 2.624 v -1.42934 h -2.624 v -4.096 h -1.57867 v 4.096 h -2.51733 v 1.42934 h 2.51733 z"
       style="font-style:normal;font-variant:normal;font-weight:normal;font-stretch:normal;font-size:21.33333397px;font-family:'URW Gothic';-inkscape-font-specification:'URW Gothic';text-align:center;text-anchor:middle;fill:#222222;fill-opacity:1;stroke-width:1.98294556"
       id="path996" /><path
       d="m 547.78542,747.63944 h -1.57867 v 2.06934 c -1.17333,-1.62134 -2.58133,-2.34667 -4.608,-2.34667 -3.49867,0 -6.144,2.64533 -6.144,6.144 0,3.49867 2.66667,6.08 6.272,6.08 1.984,0 3.22133,-0.64 4.48,-2.32533 v 2.048 h 1.57867 z m -6.144,1.17334 c 2.58133,0 4.56533,2.00533 4.56533,4.608 0,2.66666 -1.96267,4.71466 -4.48,4.71466 -2.64533,0 -4.672,-2.06933 -4.672,-4.736 0,-2.53866 2.048,-4.58666 4.58667,-4.58666 z"
       style="font-style:normal;font-variant:normal;font-weight:normal;font-stretch:normal;font-size:21.33333397px;font-family:'URW Gothic';-inkscape-font-specification:'URW Gothic';text-align:center;text-anchor:middle;fill:#222222;fill-opacity:1;stroke-width:1.98294556"
       id="path998" /><path
       d="m 560.32073,755.87411 c -1.216,1.62133 -2.32533,2.26133 -4.01067,2.26133 -2.60266,0 -4.672,-2.048 -4.672,-4.65066 0,-2.624 2.02667,-4.672 4.62934,-4.672 1.728,0 3.15733,0.832 4.05333,2.368 h 1.77067 c -0.93867,-2.34667 -3.17867,-3.81867 -5.80267,-3.81867 -3.49867,0 -6.25067,2.688 -6.25067,6.08 0,3.47733 2.77334,6.144 6.35734,6.144 1.45066,0 2.79466,-0.448 3.88266,-1.32267 0.74667,-0.59733 1.19467,-1.17333 1.83467,-2.38933 z"
       style="font-style:normal;font-variant:normal;font-weight:normal;font-stretch:normal;font-size:21.33333397px;font-family:'URW Gothic';-inkscape-font-specification:'URW Gothic';text-align:center;text-anchor:middle;fill:#222222;fill-opacity:1;stroke-width:1.98294556"
       id="path1000" /><path
       d="m 564.19441,759.30878 h 1.57866 v -2.41067 l 1.83467,-2.26133 3.88267,4.672 h 1.96266 l -4.84266,-5.80267 4.544,-5.86667 h -1.94134 l -5.44,7.08267 v -11.17867 h -1.57866 z"
       style="font-style:normal;font-variant:normal;font-weight:normal;font-stretch:normal;font-size:21.33333397px;font-family:'URW Gothic';-inkscape-font-specification:'URW Gothic';text-align:center;text-anchor:middle;fill:#222222;fill-opacity:1;stroke-width:1.98294556"
       id="path1002" /></g></g><style
   id="style6116"
   type="text/css">.a{fill:#FFF}</style></svg>