<?xml version="1.0" encoding="UTF-8" standalone="no"?>
<svg
   xmlns:dc="http://purl.org/dc/elements/1.1/"
   xmlns:cc="http://creativecommons.org/ns#"
   xmlns:rdf="http://www.w3.org/1999/02/22-rdf-syntax-ns#"
   xmlns:svg="http://www.w3.org/2000/svg"
   xmlns="http://www.w3.org/2000/svg"
   xmlns:sodipodi="http://sodipodi.sourceforge.net/DTD/sodipodi-0.dtd"
   xmlns:inkscape="http://www.inkscape.org/namespaces/inkscape"
   version="1.1"
   id="Level_1"
   x="0px"
   y="0px"
   width="600"
   height="100"
   viewBox="0 0 600 100"
   enable-background="new 0 0 1024 768"
   xml:space="preserve"
   sodipodi:docname="logo.svg"
   inkscape:version="0.92.4 5da689c313, 2019-01-14"><metadata
   id="metadata971"><rdf:RDF><cc:Work
       rdf:about=""><dc:format>image/svg+xml</dc:format><dc:type
         rdf:resource="http://purl.org/dc/dcmitype/StillImage" /><dc:title></dc:title></cc:Work></rdf:RDF></metadata><defs
   id="defs969"><clipPath
     id="a"><path
       id="path5749"
       d="m 239.03,226.605 -42.13,24.317 c -1.578,0.91 -2.546,2.59 -2.546,4.406 v 48.668 c 0,1.817 0.968,3.496 2.546,4.406 l 42.133,24.336 c 1.575,0.907 3.517,0.907 5.09,0 l 42.126,-24.336 c 1.57,-0.91 2.54,-2.59 2.54,-4.406 v -48.668 c 0,-1.816 -0.97,-3.496 -2.55,-4.406 l -42.12,-24.317 c -0.79,-0.453 -1.67,-0.68 -2.55,-0.68 -0.88,0 -1.76,0.227 -2.55,0.68"
       inkscape:connector-curvature="0" /></clipPath><linearGradient
     gradientUnits="userSpaceOnUse"
     gradientTransform="matrix(-38.064915,77.652126,-77.652126,-38.064915,258.72325,244.62943)"
     x2="1.251"
     x1="-0.34799999"
     id="b"><stop
       id="stop5752"
       stop-color="#3E863D"
       offset=".3" /><stop
       id="stop5754"
       stop-color="#55934F"
       offset=".5" /><stop
       id="stop5756"
       stop-color="#5AAD45"
       offset=".8" /></linearGradient><clipPath
     id="c"><path
       id="path5759"
       d="m 195.398,307.086 c 0.403,0.523 0.907,0.976 1.5,1.316 l 36.14,20.875 6.02,3.46 c 0.9,0.52 1.926,0.74 2.934,0.665 0.336,-0.027 0.672,-0.09 1,-0.183 l 44.434,-81.36 c -0.34,-0.37 -0.738,-0.68 -1.184,-0.94 l -27.586,-15.93 -14.582,-8.39 c -0.414,-0.24 -0.863,-0.41 -1.32,-0.53 z m 0,0"
       inkscape:connector-curvature="0" /></clipPath><linearGradient
     gradientUnits="userSpaceOnUse"
     gradientTransform="matrix(106.8057,-78.916731,78.916731,106.8057,235.18824,285.39477)"
     x2="0.58200002"
     x1="-0.456"
     id="d"><stop
       id="stop5762"
       stop-color="#3E863D"
       offset=".57" /><stop
       id="stop5764"
       stop-color="#619857"
       offset=".72" /><stop
       id="stop5766"
       stop-color="#76AC64"
       offset="1" /></linearGradient><clipPath
     id="e"><path
       id="path5769"
       d="m 241.066,225.953 c -0.707,0.07 -1.398,0.29 -2.035,0.652 l -42.01,24.247 45.3,82.51 c 0.63,-0.09 1.25,-0.3 1.81,-0.624 l 42.13,-24.336 c 1.3,-0.754 2.19,-2.03 2.46,-3.476 l -46.18,-78.89 c -0.34,-0.067 -0.68,-0.102 -1.03,-0.102 -0.14,0 -0.28,0.007 -0.42,0.02"
       inkscape:connector-curvature="0" /></clipPath><linearGradient
     gradientUnits="userSpaceOnUse"
     gradientTransform="matrix(97.417,0,0,97.417,192.862,279.652)"
     x2="0.98400003"
     x1="0.043000001"
     id="f"><stop
       id="stop5772"
       stop-color="#6BBF47"
       offset=".16" /><stop
       id="stop5774"
       stop-color="#79B461"
       offset=".38" /><stop
       id="stop5776"
       stop-color="#75AC64"
       offset=".47" /><stop
       id="stop5778"
       stop-color="#659E5A"
       offset=".7" /><stop
       id="stop5780"
       stop-color="#3E863D"
       offset=".9" /></linearGradient><clipPath
     id="a-5"><path
       id="path1573"
       d="m 239.03,226.605 -42.13,24.317 c -1.578,0.91 -2.546,2.59 -2.546,4.406 v 48.668 c 0,1.817 0.968,3.496 2.546,4.406 l 42.133,24.336 c 1.575,0.907 3.517,0.907 5.09,0 l 42.126,-24.336 c 1.57,-0.91 2.54,-2.59 2.54,-4.406 v -48.668 c 0,-1.816 -0.97,-3.496 -2.55,-4.406 l -42.12,-24.317 c -0.79,-0.453 -1.67,-0.68 -2.55,-0.68 -0.88,0 -1.76,0.227 -2.55,0.68"
       inkscape:connector-curvature="0" /></clipPath><linearGradient
     gradientUnits="userSpaceOnUse"
     gradientTransform="matrix(-38.064915,77.652126,-77.652126,-38.064915,258.72325,244.62943)"
     x2="1.251"
     x1="-0.34799999"
     id="b-3"><stop
       id="stop1576"
       stop-color="#3E863D"
       offset=".3" /><stop
       id="stop1578"
       stop-color="#55934F"
       offset=".5" /><stop
       id="stop1580"
       stop-color="#5AAD45"
       offset=".8" /></linearGradient><clipPath
     id="c-5"><path
       id="path1583"
       d="m 195.398,307.086 c 0.403,0.523 0.907,0.976 1.5,1.316 l 36.14,20.875 6.02,3.46 c 0.9,0.52 1.926,0.74 2.934,0.665 0.336,-0.027 0.672,-0.09 1,-0.183 l 44.434,-81.36 c -0.34,-0.37 -0.738,-0.68 -1.184,-0.94 l -27.586,-15.93 -14.582,-8.39 c -0.414,-0.24 -0.863,-0.41 -1.32,-0.53 z m 0,0"
       inkscape:connector-curvature="0" /></clipPath><linearGradient
     gradientUnits="userSpaceOnUse"
     gradientTransform="matrix(106.8057,-78.916731,78.916731,106.8057,235.18824,285.39477)"
     x2="0.58200002"
     x1="-0.456"
     id="d-6"><stop
       id="stop1586"
       stop-color="#3E863D"
       offset=".57" /><stop
       id="stop1588"
       stop-color="#619857"
       offset=".72" /><stop
       id="stop1590"
       stop-color="#76AC64"
       offset="1" /></linearGradient><clipPath
     id="e-2"><path
       id="path1593"
       d="m 241.066,225.953 c -0.707,0.07 -1.398,0.29 -2.035,0.652 l -42.01,24.247 45.3,82.51 c 0.63,-0.09 1.25,-0.3 1.81,-0.624 l 42.13,-24.336 c 1.3,-0.754 2.19,-2.03 2.46,-3.476 l -46.18,-78.89 c -0.34,-0.067 -0.68,-0.102 -1.03,-0.102 -0.14,0 -0.28,0.007 -0.42,0.02"
       inkscape:connector-curvature="0" /></clipPath><linearGradient
     gradientUnits="userSpaceOnUse"
     gradientTransform="matrix(97.417,0,0,97.417,192.862,279.652)"
     x2="0.98400003"
     x1="0.043000001"
     id="f-9"><stop
       id="stop1596"
       stop-color="#6BBF47"
       offset=".16" /><stop
       id="stop1598"
       stop-color="#79B461"
       offset=".38" /><stop
       id="stop1600"
       stop-color="#75AC64"
       offset=".47" /><stop
       id="stop1602"
       stop-color="#659E5A"
       offset=".7" /><stop
       id="stop1604"
       stop-color="#3E863D"
       offset=".9" /></linearGradient><clipPath
     id="clipPath2832"><path
       id="path2834-1"
       d="M 0,792 H 612 V 0 H 0 Z"
       inkscape:connector-curvature="0" /></clipPath><clipPath
     id="clipPath2844"><path
       id="path2846"
       d="M 0,792 H 612 V 0 H 0 Z"
       inkscape:connector-curvature="0" /></clipPath><clipPath
     id="clipPath2852"><path
       id="path2854"
       d="M 96.0078,715.93 H 184.298 V 653.754 H 96.0078 Z"
       inkscape:connector-curvature="0" /></clipPath><clipPath
     id="clipPath2868"><path
       id="path2870"
       d="M 0,792 H 612 V 0 H 0 Z"
       inkscape:connector-curvature="0" /></clipPath><clipPath
     id="clipPath2880"><path
       id="path2882"
       d="M 0,792 H 612 V 0 H 0 Z"
       inkscape:connector-curvature="0" /></clipPath><clipPath
     id="clipPath2908"><path
       id="path2910"
       d="M 0,792 H 612 V 0 H 0 Z"
       inkscape:connector-curvature="0" /></clipPath><clipPath
     id="clipPath2936"><path
       id="path2938"
       d="M 0,792 H 612 V 0 H 0 Z"
       inkscape:connector-curvature="0" /></clipPath><clipPath
     id="clipPath2944"><path
       id="path2946"
       d="m 121.202,708.378 h 45.899 v -45.859 h -45.899 z"
       inkscape:connector-curvature="0" /></clipPath><clipPath
     id="clipPath2960"><path
       id="path2962"
       d="M 0,792 H 612 V 0 H 0 Z"
       inkscape:connector-curvature="0" /></clipPath><clipPath
     id="clipPath2968"><path
       id="path2970"
       d="M 40.4033,726.188 H 252.805 V 664.37 H 40.4033 Z"
       inkscape:connector-curvature="0" /></clipPath><clipPath
     id="clipPath2988"><path
       id="path2990"
       d="M 0,792 H 612 V 0 H 0 Z"
       inkscape:connector-curvature="0" /></clipPath><clipPath
     id="clipPath2996"><path
       id="path2998"
       d="M 39.5195,688.644 H 238.9 V 614.826 H 39.5195 Z"
       inkscape:connector-curvature="0" /></clipPath><clipPath
     id="clipPath3016"><path
       id="path3018"
       d="M 0,792 H 612 V 0 H 0 Z"
       inkscape:connector-curvature="0" /></clipPath></defs><sodipodi:namedview
   pagecolor="#ffffff"
   bordercolor="#666666"
   borderopacity="1"
   objecttolerance="10"
   gridtolerance="10"
   guidetolerance="10"
   inkscape:pageopacity="0"
   inkscape:pageshadow="2"
   inkscape:window-width="1366"
   inkscape:window-height="746"
   id="namedview967"
   showgrid="false"
   showguides="true"
   inkscape:guide-bbox="true"
   inkscape:zoom="0.85470339"
   inkscape:cx="258.51482"
   inkscape:cy="60.311961"
   inkscape:window-x="0"
   inkscape:window-y="0"
   inkscape:window-maximized="0"
   inkscape:current-layer="layer2"><sodipodi:guide
     position="75.028336,1579.8824"
     orientation="1,0"
     id="guide2944"
     inkscape:locked="false" /></sodipodi:namedview>
  
  
  
  
  
  
  <g
   inkscape:groupmode="layer"
   id="layer2"
   inkscape:label="name"
   style="display:inline"
   transform="translate(0,-668)"><g
     id="g1708"
     transform="translate(-212.00001,597.24814)"><rect
   ry="2.745687"
   transform="matrix(-0.99653162,-0.08321496,-0.08321496,0.99653162,0,0)"
   y="115.2689"
   x="-261.47049"
   height="29.445347"
   width="32.559757"
   id="rect1595"
   style="display:inline;opacity:1;fill:#f93943;fill-opacity:1;stroke:none;stroke-width:1.29717493;stroke-linecap:butt;stroke-linejoin:miter;stroke-miterlimit:4;stroke-dasharray:none;stroke-dashoffset:0;paint-order:markers stroke fill" /><rect
   ry="2.745687"
   transform="matrix(-0.99272464,-0.12040674,-0.12040674,0.99272464,0,0)"
   y="77.966385"
   x="-262.40143"
   height="25.764679"
   width="25.906246"
   id="rect1597"
   style="display:inline;opacity:1;fill:#f93943;fill-opacity:1;stroke:none;stroke-width:1.29717493;stroke-linecap:butt;stroke-linejoin:miter;stroke-miterlimit:4;stroke-dasharray:none;stroke-dashoffset:0;paint-order:markers stroke fill" /><rect
   ry="2.7456865"
   transform="matrix(-0.9958733,-0.09075441,-0.09075441,0.9958733,0,0)"
   y="65.70475"
   x="-268.09647"
   height="19.252726"
   width="19.67742"
   id="rect1599"
   style="display:inline;opacity:1;fill:#f93943;fill-opacity:1;stroke:none;stroke-width:1.29717481;stroke-linecap:butt;stroke-linejoin:miter;stroke-miterlimit:4;stroke-dasharray:none;stroke-dashoffset:0;paint-order:markers stroke fill" /><rect
   ry="2.7456865"
   transform="matrix(-0.84598832,0.53320142,0.53320142,0.84598832,0,0)"
   y="208.03574"
   x="-189.95195"
   height="15.411753"
   width="15.411753"
   id="rect1601"
   style="display:inline;opacity:1;fill:#f93943;fill-opacity:1;stroke:none;stroke-width:1.16711032;stroke-linecap:butt;stroke-linejoin:miter;stroke-miterlimit:4;stroke-dasharray:none;stroke-dashoffset:0;paint-order:markers stroke fill" /><text
   id="text1566"
   y="134.99406"
   x="285.25897"
   style="font-style:normal;font-weight:normal;font-size:79.31782532px;line-height:1.25;font-family:sans-serif;letter-spacing:0px;word-spacing:0px;fill:#222222;fill-opacity:1;stroke:none;stroke-width:1.98294556"
   xml:space="preserve"><tspan
     style="font-style:normal;font-variant:normal;font-weight:normal;font-stretch:normal;font-family:'URW Gothic';-inkscape-font-specification:'URW Gothic';fill:#222222;fill-opacity:1;stroke-width:1.98294556"
     y="134.99406"
     x="285.25897"
     id="tspan1564"
     sodipodi:role="line">STACK PICKER</tspan></text>


<text
   xml:space="preserve"
   style="font-style:normal;font-weight:normal;font-size:79.31782532px;line-height:1.25;font-family:sans-serif;letter-spacing:0px;word-spacing:0px;fill:#222222;fill-opacity:1;stroke:none;stroke-width:1.98294556"
   x="547.3504"
   y="162.06065"
   id="text1621"><tspan
     sodipodi:role="line"
     id="tspan1619"
     x="547.3504"
     y="162.06065"
     style="font-style:normal;font-variant:normal;font-weight:normal;font-stretch:normal;font-size:21.33333397px;font-family:'URW Gothic';-inkscape-font-specification:'URW Gothic';text-align:center;text-anchor:middle;fill:#222222;fill-opacity:1;stroke-width:1.98294556">The professional way to (not) pick a web stack</tspan></text>


</g></g><style
   id="style6116"
   type="text/css">.a{fill:#FFF}</style></svg>