<?xml version="1.0" encoding="UTF-8" standalone="no"?>
<!-- Created with Inkscape (http://www.inkscape.org/) -->

<svg
   xmlns:dc="http://purl.org/dc/elements/1.1/"
   xmlns:cc="http://creativecommons.org/ns#"
   xmlns:rdf="http://www.w3.org/1999/02/22-rdf-syntax-ns#"
   xmlns:svg="http://www.w3.org/2000/svg"
   xmlns="http://www.w3.org/2000/svg"
   xmlns:sodipodi="http://sodipodi.sourceforge.net/DTD/sodipodi-0.dtd"
   xmlns:inkscape="http://www.inkscape.org/namespaces/inkscape"
   width="300"
   height="100"
   viewBox="0 0 79.374998 26.458334"
   version="1.1"
   id="svg8"
   inkscape:version="0.92.4 5da689c313, 2019-01-14"
   sodipodi:docname="rest.svg">
  <defs
     id="defs2" />
  <sodipodi:namedview
     id="base"
     pagecolor="#ffffff"
     bordercolor="#666666"
     borderopacity="1.0"
     inkscape:pageopacity="0.0"
     inkscape:pageshadow="2"
     inkscape:zoom="1.2018735"
     inkscape:cx="98.198537"
     inkscape:cy="35.028644"
     inkscape:document-units="px"
     inkscape:current-layer="layer1"
     showgrid="false"
     units="px"
     inkscape:window-width="1366"
     inkscape:window-height="746"
     inkscape:window-x="0"
     inkscape:window-y="0"
     inkscape:window-maximized="0" />
  <metadata
     id="metadata5">
    <rdf:RDF>
      <cc:Work
         rdf:about="">
        <dc:format>image/svg+xml</dc:format>
        <dc:type
           rdf:resource="http://purl.org/dc/dcmitype/StillImage" />
        <dc:title></dc:title>
      </cc:Work>
    </rdf:RDF>
  </metadata>
  <g
     inkscape:label="Layer 1"
     inkscape:groupmode="layer"
     id="layer1"
     transform="translate(0,-270.54165)">
    <g
       aria-label="REST"
       transform="matrix(0.87927609,0,0,0.87927609,684.83071,54.293496)"
       style="font-style:normal;font-weight:normal;font-size:40px;line-height:1.25;font-family:sans-serif;letter-spacing:0px;word-spacing:0px;fill:#000000;fill-opacity:1;stroke:none"
       id="flowRoot815">
      <path
         d="m -778.85742,274.10438 h 3.32 v -11.08 h 4.68 l 6.32,11.08 h 3.8 l -6.68,-11.44 c 3.56,-0.92 5.88,-3.36 5.88,-7.44 0,-5.44 -3.84,-7.36 -9.16,-7.36 h -8.16 z m 3.32,-13.8 v -9.76 h 4.36 c 4.08,0 6.32,1.24 6.32,4.68 0,3.4 -2.24,5.08 -6.32,5.08 z"
         style="font-style:normal;font-variant:normal;font-weight:normal;font-stretch:normal;font-family:'Source Code Pro';-inkscape-font-specification:'Source Code Pro';fill:#002255"
         id="path870" />
      <path
         d="m -754.31305,274.10438 h 16.64 v -2.84 h -13.28 v -9.52 h 10.88 v -2.84 h -10.88 v -8.24 h 12.88 v -2.8 h -16.24 z"
         style="font-style:normal;font-variant:normal;font-weight:normal;font-stretch:normal;font-family:'Source Code Pro';-inkscape-font-specification:'Source Code Pro';fill:#002255"
         id="path872" />
      <path
         d="m -722.68867,274.58438 c 5.76,0 9.28,-3.32 9.28,-7.48 0,-3.88 -2.56,-5.68 -5.8,-7 l -3.68,-1.6 c -2.24,-0.92 -4.68,-1.84 -4.68,-4.36 0,-2.36 2.04,-3.84 5.08,-3.84 2.72,0 4.72,0.96 6.44,2.48 l 1.76,-2.16 c -1.92,-1.92 -4.8,-3.24 -8.08,-3.24 -5,0 -8.6,2.96 -8.6,6.96 0,3.84 3.04,5.72 5.68,6.76 l 3.76,1.64 c 2.68,1.16 4.72,1.96 4.72,4.76 0,2.44 -2.12,4.16 -5.72,4.16 -3,0 -5.72,-1.32 -7.68,-3.28 l -2,2.32 c 2.36,2.36 5.68,3.88 9.52,3.88 z"
         style="font-style:normal;font-variant:normal;font-weight:normal;font-stretch:normal;font-family:'Source Code Pro';-inkscape-font-specification:'Source Code Pro';fill:#002255"
         id="path874" />
      <path
         d="m -700.5843,274.10438 h 3.36 v -23.44 h 8.64 v -2.8 h -20.64 v 2.8 h 8.64 z"
         style="font-style:normal;font-variant:normal;font-weight:normal;font-stretch:normal;font-family:'Source Code Pro';-inkscape-font-specification:'Source Code Pro';fill:#002255"
         id="path876" />
    </g>
  </g>
</svg>
